<mxfile host="Electron" agent="Mozilla/5.0 (Macintosh; Intel Mac OS X 10_15_7) AppleWebKit/537.36 (KHTML, like Gecko) draw.io/28.1.2 Chrome/138.0.7204.243 Electron/37.4.0 Safari/537.36" version="28.1.2">
  <diagram name="Page-1" id="MIQPmrc2le5aCL_mijnO">
    <mxGraphModel dx="1651" dy="781" grid="1" gridSize="10" guides="1" tooltips="1" connect="1" arrows="1" fold="1" page="1" pageScale="1" pageWidth="1100" pageHeight="850" math="0" shadow="0">
      <root>
        <mxCell id="0" />
        <mxCell id="1" parent="0" />
        <mxCell id="j43DYgKVeWqjYX7amRys-3" value="rdfs:domain" style="edgeStyle=orthogonalEdgeStyle;rounded=0;orthogonalLoop=1;jettySize=auto;html=1;" parent="1" source="j43DYgKVeWqjYX7amRys-1" target="j43DYgKVeWqjYX7amRys-2" edge="1">
          <mxGeometry relative="1" as="geometry">
            <mxPoint as="offset" />
          </mxGeometry>
        </mxCell>
        <mxCell id="j43DYgKVeWqjYX7amRys-14" value="rdfs:range" style="edgeStyle=orthogonalEdgeStyle;rounded=0;orthogonalLoop=1;jettySize=auto;html=1;exitX=0.5;exitY=1;exitDx=0;exitDy=0;entryX=0.5;entryY=0;entryDx=0;entryDy=0;fontFamily=Helvetica;fontSize=12;fontColor=default;" parent="1" source="j43DYgKVeWqjYX7amRys-1" target="j43DYgKVeWqjYX7amRys-10" edge="1">
          <mxGeometry relative="1" as="geometry" />
        </mxCell>
        <mxCell id="8VNeFOGamW6wzpzaQLu3-3" value="rdf:type" style="edgeStyle=orthogonalEdgeStyle;rounded=0;orthogonalLoop=1;jettySize=auto;html=1;" parent="1" source="j43DYgKVeWqjYX7amRys-1" target="8VNeFOGamW6wzpzaQLu3-2" edge="1">
          <mxGeometry relative="1" as="geometry" />
        </mxCell>
        <mxCell id="j43DYgKVeWqjYX7amRys-1" value="mds:Eats (eats,ate, consume, imbibe)" style="rounded=1;whiteSpace=wrap;html=1;" parent="1" vertex="1">
          <mxGeometry x="390" y="190" width="120" height="60" as="geometry" />
        </mxCell>
        <mxCell id="j43DYgKVeWqjYX7amRys-2" value="mds:Human" style="rounded=1;whiteSpace=wrap;html=1;" parent="1" vertex="1">
          <mxGeometry x="290" y="340" width="120" height="60" as="geometry" />
        </mxCell>
        <mxCell id="j43DYgKVeWqjYX7amRys-10" value="owl:unionOf" style="swimlane;fontStyle=0;childLayout=stackLayout;horizontal=1;startSize=30;horizontalStack=0;resizeParent=1;resizeParentMax=0;resizeLast=0;collapsible=1;marginBottom=0;whiteSpace=wrap;html=1;rounded=1;strokeColor=default;align=center;verticalAlign=middle;fontFamily=Helvetica;fontSize=12;fontColor=default;fillColor=default;" parent="1" vertex="1">
          <mxGeometry x="470" y="340" width="140" height="210" as="geometry" />
        </mxCell>
        <mxCell id="j43DYgKVeWqjYX7amRys-11" value="mds:Vegetable" style="text;strokeColor=none;fillColor=none;align=left;verticalAlign=middle;spacingLeft=4;spacingRight=4;overflow=hidden;points=[[0,0.5],[1,0.5]];portConstraint=eastwest;rotatable=0;whiteSpace=wrap;html=1;fontFamily=Helvetica;fontSize=12;fontColor=default;" parent="j43DYgKVeWqjYX7amRys-10" vertex="1">
          <mxGeometry y="30" width="140" height="30" as="geometry" />
        </mxCell>
        <mxCell id="j43DYgKVeWqjYX7amRys-15" value="owl:intersectionOf" style="swimlane;fontStyle=0;childLayout=stackLayout;horizontal=1;startSize=30;horizontalStack=0;resizeParent=1;resizeParentMax=0;resizeLast=0;collapsible=1;marginBottom=0;whiteSpace=wrap;html=1;rounded=1;strokeColor=default;align=center;verticalAlign=middle;fontFamily=Helvetica;fontSize=12;fontColor=default;fillColor=default;" parent="j43DYgKVeWqjYX7amRys-10" vertex="1">
          <mxGeometry y="60" width="140" height="150" as="geometry" />
        </mxCell>
        <mxCell id="j43DYgKVeWqjYX7amRys-16" value="mds:Meat" style="text;strokeColor=none;fillColor=none;align=left;verticalAlign=middle;spacingLeft=4;spacingRight=4;overflow=hidden;points=[[0,0.5],[1,0.5]];portConstraint=eastwest;rotatable=0;whiteSpace=wrap;html=1;fontFamily=Helvetica;fontSize=12;fontColor=default;" parent="j43DYgKVeWqjYX7amRys-15" vertex="1">
          <mxGeometry y="30" width="140" height="30" as="geometry" />
        </mxCell>
        <mxCell id="j43DYgKVeWqjYX7amRys-17" value="&amp;nbsp;mds:Dairy" style="text;strokeColor=none;fillColor=none;align=left;verticalAlign=middle;spacingLeft=4;spacingRight=4;overflow=hidden;points=[[0,0.5],[1,0.5]];portConstraint=eastwest;rotatable=0;whiteSpace=wrap;html=1;fontFamily=Helvetica;fontSize=12;fontColor=default;" parent="j43DYgKVeWqjYX7amRys-15" vertex="1">
          <mxGeometry y="60" width="140" height="30" as="geometry" />
        </mxCell>
        <mxCell id="j43DYgKVeWqjYX7amRys-19" value="owl:complementOf" style="swimlane;fontStyle=0;childLayout=stackLayout;horizontal=1;startSize=30;horizontalStack=0;resizeParent=1;resizeParentMax=0;resizeLast=0;collapsible=1;marginBottom=0;whiteSpace=wrap;html=1;rounded=1;strokeColor=default;align=center;verticalAlign=middle;fontFamily=Helvetica;fontSize=12;fontColor=default;fillColor=default;" parent="j43DYgKVeWqjYX7amRys-15" vertex="1">
          <mxGeometry y="90" width="140" height="60" as="geometry" />
        </mxCell>
        <mxCell id="j43DYgKVeWqjYX7amRys-20" value="mds:Fish" style="text;strokeColor=none;fillColor=none;align=left;verticalAlign=middle;spacingLeft=4;spacingRight=4;overflow=hidden;points=[[0,0.5],[1,0.5]];portConstraint=eastwest;rotatable=0;whiteSpace=wrap;html=1;fontFamily=Helvetica;fontSize=12;fontColor=default;" parent="j43DYgKVeWqjYX7amRys-19" vertex="1">
          <mxGeometry y="30" width="140" height="30" as="geometry" />
        </mxCell>
        <mxCell id="8VNeFOGamW6wzpzaQLu3-2" value="owl:ObjectProperty" style="rounded=1;whiteSpace=wrap;html=1;" parent="1" vertex="1">
          <mxGeometry x="390" y="50" width="120" height="60" as="geometry" />
        </mxCell>
        <mxCell id="WULXCkiqx-Knqm5ptm2H-17" value="rdfs:subClassOf" style="edgeStyle=orthogonalEdgeStyle;rounded=0;orthogonalLoop=1;jettySize=auto;html=1;" parent="1" source="WULXCkiqx-Knqm5ptm2H-16" target="WULXCkiqx-Knqm5ptm2H-15" edge="1">
          <mxGeometry relative="1" as="geometry" />
        </mxCell>
        <mxCell id="WULXCkiqx-Knqm5ptm2H-15" value="cco:Person" style="rounded=1;whiteSpace=wrap;html=1;" parent="1" vertex="1">
          <mxGeometry x="810" y="50" width="120" height="60" as="geometry" />
        </mxCell>
        <mxCell id="WULXCkiqx-Knqm5ptm2H-16" value="mds:HappyParent" style="rounded=1;whiteSpace=wrap;html=1;" parent="1" vertex="1">
          <mxGeometry x="810" y="190" width="120" height="61" as="geometry" />
        </mxCell>
        <mxCell id="XVvXl2lgOHgUAnJFSwPM-1" value="ms:equivalentTo" style="edgeStyle=orthogonalEdgeStyle;rounded=0;orthogonalLoop=1;jettySize=auto;html=1;" parent="1" source="WULXCkiqx-Knqm5ptm2H-16" target="WULXCkiqx-Knqm5ptm2H-18" edge="1">
          <mxGeometry relative="1" as="geometry" />
        </mxCell>
        <mxCell id="XVvXl2lgOHgUAnJFSwPM-35" value="ms:onProperty" style="edgeStyle=orthogonalEdgeStyle;rounded=0;orthogonalLoop=1;jettySize=auto;html=1;exitX=0.5;exitY=1;exitDx=0;exitDy=0;entryX=0.5;entryY=0;entryDx=0;entryDy=0;" parent="1" source="WULXCkiqx-Knqm5ptm2H-18" target="WULXCkiqx-Knqm5ptm2H-20" edge="1">
          <mxGeometry relative="1" as="geometry" />
        </mxCell>
        <mxCell id="XVvXl2lgOHgUAnJFSwPM-36" value="ms:onProperty" style="edgeStyle=orthogonalEdgeStyle;rounded=0;orthogonalLoop=1;jettySize=auto;html=1;exitX=0.5;exitY=1;exitDx=0;exitDy=0;entryX=0.5;entryY=0;entryDx=0;entryDy=0;" parent="1" source="WULXCkiqx-Knqm5ptm2H-18" target="nOcifAEcjVW8nxxzpnrQ-10" edge="1">
          <mxGeometry relative="1" as="geometry" />
        </mxCell>
        <mxCell id="XVvXl2lgOHgUAnJFSwPM-37" value="ms:onProperty" style="edgeStyle=orthogonalEdgeStyle;rounded=0;orthogonalLoop=1;jettySize=auto;html=1;exitX=0.5;exitY=1;exitDx=0;exitDy=0;entryX=0.5;entryY=0;entryDx=0;entryDy=0;" parent="1" source="WULXCkiqx-Knqm5ptm2H-18" target="XVvXl2lgOHgUAnJFSwPM-5" edge="1">
          <mxGeometry relative="1" as="geometry" />
        </mxCell>
        <mxCell id="XVvXl2lgOHgUAnJFSwPM-38" value="ms:onProperty" style="edgeStyle=orthogonalEdgeStyle;rounded=0;orthogonalLoop=1;jettySize=auto;html=1;exitX=0.5;exitY=1;exitDx=0;exitDy=0;entryX=0.5;entryY=0;entryDx=0;entryDy=0;" parent="1" source="WULXCkiqx-Knqm5ptm2H-18" target="XVvXl2lgOHgUAnJFSwPM-32" edge="1">
          <mxGeometry relative="1" as="geometry" />
        </mxCell>
        <mxCell id="WULXCkiqx-Knqm5ptm2H-18" value="owl:Restriction" style="rounded=1;whiteSpace=wrap;html=1;" parent="1" vertex="1">
          <mxGeometry x="810" y="331" width="120" height="61" as="geometry" />
        </mxCell>
        <mxCell id="XVvXl2lgOHgUAnJFSwPM-40" value="ms:some" style="edgeStyle=orthogonalEdgeStyle;rounded=0;orthogonalLoop=1;jettySize=auto;html=1;exitX=0.5;exitY=1;exitDx=0;exitDy=0;entryX=0.5;entryY=0;entryDx=0;entryDy=0;" parent="1" source="WULXCkiqx-Knqm5ptm2H-20" target="WULXCkiqx-Knqm5ptm2H-28" edge="1">
          <mxGeometry relative="1" as="geometry" />
        </mxCell>
        <mxCell id="WULXCkiqx-Knqm5ptm2H-20" value="mds:hasChild" style="rounded=1;whiteSpace=wrap;html=1;" parent="1" vertex="1">
          <mxGeometry x="810" y="600" width="120" height="61" as="geometry" />
        </mxCell>
        <mxCell id="WULXCkiqx-Knqm5ptm2H-25" value="ms:of" style="edgeStyle=orthogonalEdgeStyle;rounded=0;orthogonalLoop=1;jettySize=auto;html=1;" parent="1" source="WULXCkiqx-Knqm5ptm2H-22" target="WULXCkiqx-Knqm5ptm2H-24" edge="1">
          <mxGeometry relative="1" as="geometry" />
        </mxCell>
        <mxCell id="XVvXl2lgOHgUAnJFSwPM-39" value="ms:max" style="edgeStyle=orthogonalEdgeStyle;rounded=0;orthogonalLoop=1;jettySize=auto;html=1;exitX=0.5;exitY=1;exitDx=0;exitDy=0;entryX=0.5;entryY=0;entryDx=0;entryDy=0;" parent="1" source="WULXCkiqx-Knqm5ptm2H-20" target="WULXCkiqx-Knqm5ptm2H-22" edge="1">
          <mxGeometry relative="1" as="geometry" />
        </mxCell>
        <mxCell id="WULXCkiqx-Knqm5ptm2H-22" value="&quot;1&quot;^^xsd:decimal" style="rounded=1;whiteSpace=wrap;html=1;" parent="1" vertex="1">
          <mxGeometry x="700" y="780" width="120" height="61" as="geometry" />
        </mxCell>
        <mxCell id="WULXCkiqx-Knqm5ptm2H-24" value="&lt;div&gt;mds:HappyPerson&lt;/div&gt;" style="rounded=1;whiteSpace=wrap;html=1;" parent="1" vertex="1">
          <mxGeometry x="700" y="921" width="120" height="61" as="geometry" />
        </mxCell>
        <mxCell id="WULXCkiqx-Knqm5ptm2H-28" value="owl:unionOf" style="swimlane;fontStyle=0;childLayout=stackLayout;horizontal=1;startSize=30;horizontalStack=0;resizeParent=1;resizeParentMax=0;resizeLast=0;collapsible=1;marginBottom=0;whiteSpace=wrap;html=1;rounded=1;strokeColor=default;align=center;verticalAlign=middle;fontFamily=Helvetica;fontSize=12;fontColor=default;fillColor=default;" parent="1" vertex="1">
          <mxGeometry x="870" y="780" width="140" height="150" as="geometry" />
        </mxCell>
        <mxCell id="WULXCkiqx-Knqm5ptm2H-35" value="mds:PassionatePerson" style="text;strokeColor=none;fillColor=none;align=left;verticalAlign=middle;spacingLeft=4;spacingRight=4;overflow=hidden;points=[[0,0.5],[1,0.5]];portConstraint=eastwest;rotatable=0;whiteSpace=wrap;html=1;" parent="WULXCkiqx-Knqm5ptm2H-28" vertex="1">
          <mxGeometry y="30" width="140" height="30" as="geometry" />
        </mxCell>
        <mxCell id="WULXCkiqx-Knqm5ptm2H-36" value="mds:JoyfulPerson" style="text;strokeColor=none;fillColor=none;align=left;verticalAlign=middle;spacingLeft=4;spacingRight=4;overflow=hidden;points=[[0,0.5],[1,0.5]];portConstraint=eastwest;rotatable=0;whiteSpace=wrap;html=1;" parent="WULXCkiqx-Knqm5ptm2H-28" vertex="1">
          <mxGeometry y="60" width="140" height="30" as="geometry" />
        </mxCell>
        <mxCell id="WULXCkiqx-Knqm5ptm2H-42" value="owl:complementOf" style="swimlane;fontStyle=0;childLayout=stackLayout;horizontal=1;startSize=30;horizontalStack=0;resizeParent=1;resizeParentMax=0;resizeLast=0;collapsible=1;marginBottom=0;whiteSpace=wrap;html=1;rounded=1;strokeColor=default;align=center;verticalAlign=middle;fontFamily=Helvetica;fontSize=12;fontColor=default;fillColor=default;" parent="WULXCkiqx-Knqm5ptm2H-28" vertex="1">
          <mxGeometry y="90" width="140" height="60" as="geometry" />
        </mxCell>
        <mxCell id="WULXCkiqx-Knqm5ptm2H-43" value="mds:SadPerson" style="text;strokeColor=none;fillColor=none;align=left;verticalAlign=middle;spacingLeft=4;spacingRight=4;overflow=hidden;points=[[0,0.5],[1,0.5]];portConstraint=eastwest;rotatable=0;whiteSpace=wrap;html=1;fontFamily=Helvetica;fontSize=12;fontColor=default;fontStyle=0;" parent="WULXCkiqx-Knqm5ptm2H-42" vertex="1">
          <mxGeometry y="30" width="140" height="30" as="geometry" />
        </mxCell>
        <mxCell id="nOcifAEcjVW8nxxzpnrQ-13" value="ms:min" style="edgeStyle=orthogonalEdgeStyle;rounded=0;orthogonalLoop=1;jettySize=auto;html=1;" parent="1" source="nOcifAEcjVW8nxxzpnrQ-10" target="nOcifAEcjVW8nxxzpnrQ-12" edge="1">
          <mxGeometry relative="1" as="geometry" />
        </mxCell>
        <mxCell id="nOcifAEcjVW8nxxzpnrQ-10" value="mds:hasWife" style="rounded=1;whiteSpace=wrap;html=1;" parent="1" vertex="1">
          <mxGeometry x="1050" y="600" width="120" height="60" as="geometry" />
        </mxCell>
        <mxCell id="nOcifAEcjVW8nxxzpnrQ-15" value="ms:of" style="edgeStyle=orthogonalEdgeStyle;rounded=0;orthogonalLoop=1;jettySize=auto;html=1;" parent="1" source="nOcifAEcjVW8nxxzpnrQ-12" target="nOcifAEcjVW8nxxzpnrQ-14" edge="1">
          <mxGeometry relative="1" as="geometry" />
        </mxCell>
        <mxCell id="nOcifAEcjVW8nxxzpnrQ-12" value="&quot;1&quot;^^xsd:integer" style="rounded=1;whiteSpace=wrap;html=1;" parent="1" vertex="1">
          <mxGeometry x="1050" y="740" width="120" height="60" as="geometry" />
        </mxCell>
        <mxCell id="nOcifAEcjVW8nxxzpnrQ-14" value="mds:HappyPerson" style="rounded=1;whiteSpace=wrap;html=1;" parent="1" vertex="1">
          <mxGeometry x="1050" y="880" width="120" height="60" as="geometry" />
        </mxCell>
        <mxCell id="nOcifAEcjVW8nxxzpnrQ-23" value="rdfs:subClassOf" style="edgeStyle=orthogonalEdgeStyle;rounded=0;orthogonalLoop=1;jettySize=auto;html=1;" parent="1" source="nOcifAEcjVW8nxxzpnrQ-21" target="nOcifAEcjVW8nxxzpnrQ-22" edge="1">
          <mxGeometry relative="1" as="geometry" />
        </mxCell>
        <mxCell id="nOcifAEcjVW8nxxzpnrQ-25" value="rdfs:subClassOf" style="edgeStyle=orthogonalEdgeStyle;rounded=0;orthogonalLoop=1;jettySize=auto;html=1;" parent="1" source="nOcifAEcjVW8nxxzpnrQ-21" target="nOcifAEcjVW8nxxzpnrQ-24" edge="1">
          <mxGeometry relative="1" as="geometry">
            <mxPoint as="offset" />
          </mxGeometry>
        </mxCell>
        <mxCell id="nOcifAEcjVW8nxxzpnrQ-21" value="mds:HappyParent" style="rounded=1;whiteSpace=wrap;html=1;" parent="1" vertex="1">
          <mxGeometry x="1570" y="191" width="120" height="61" as="geometry" />
        </mxCell>
        <mxCell id="nOcifAEcjVW8nxxzpnrQ-22" value="cco:Person" style="rounded=1;whiteSpace=wrap;html=1;" parent="1" vertex="1">
          <mxGeometry x="1570" y="50" width="120" height="61" as="geometry" />
        </mxCell>
        <mxCell id="nOcifAEcjVW8nxxzpnrQ-24" value="owl:Restriction" style="rounded=1;whiteSpace=wrap;html=1;" parent="1" vertex="1">
          <mxGeometry x="1570" y="332" width="120" height="61" as="geometry" />
        </mxCell>
        <mxCell id="nOcifAEcjVW8nxxzpnrQ-29" value="ms:subPropertyChain" style="edgeStyle=orthogonalEdgeStyle;rounded=0;orthogonalLoop=1;jettySize=auto;html=1;exitX=0.5;exitY=1;exitDx=0;exitDy=0;" parent="1" source="nOcifAEcjVW8nxxzpnrQ-24" target="nOcifAEcjVW8nxxzpnrQ-28" edge="1">
          <mxGeometry relative="1" as="geometry">
            <mxPoint as="offset" />
            <mxPoint x="1630" y="534" as="sourcePoint" />
          </mxGeometry>
        </mxCell>
        <mxCell id="nOcifAEcjVW8nxxzpnrQ-31" value="ms:o" style="edgeStyle=orthogonalEdgeStyle;rounded=0;orthogonalLoop=1;jettySize=auto;html=1;" parent="1" source="nOcifAEcjVW8nxxzpnrQ-28" target="nOcifAEcjVW8nxxzpnrQ-30" edge="1">
          <mxGeometry relative="1" as="geometry" />
        </mxCell>
        <mxCell id="nOcifAEcjVW8nxxzpnrQ-28" value="mds:hasParent" style="rounded=1;whiteSpace=wrap;html=1;" parent="1" vertex="1">
          <mxGeometry x="1570" y="470" width="120" height="61" as="geometry" />
        </mxCell>
        <mxCell id="nOcifAEcjVW8nxxzpnrQ-30" value="mds:hasParent" style="rounded=1;whiteSpace=wrap;html=1;" parent="1" vertex="1">
          <mxGeometry x="1570" y="599" width="120" height="61" as="geometry" />
        </mxCell>
        <mxCell id="XVvXl2lgOHgUAnJFSwPM-4" value="ms:max" style="edgeStyle=orthogonalEdgeStyle;rounded=0;orthogonalLoop=1;jettySize=auto;html=1;" parent="1" source="XVvXl2lgOHgUAnJFSwPM-5" target="XVvXl2lgOHgUAnJFSwPM-7" edge="1">
          <mxGeometry relative="1" as="geometry" />
        </mxCell>
        <mxCell id="XVvXl2lgOHgUAnJFSwPM-5" value="mds:hasUncle" style="rounded=1;whiteSpace=wrap;html=1;" parent="1" vertex="1">
          <mxGeometry x="1220" y="600" width="120" height="60" as="geometry" />
        </mxCell>
        <mxCell id="XVvXl2lgOHgUAnJFSwPM-6" value="ms:of" style="edgeStyle=orthogonalEdgeStyle;rounded=0;orthogonalLoop=1;jettySize=auto;html=1;" parent="1" source="XVvXl2lgOHgUAnJFSwPM-7" target="XVvXl2lgOHgUAnJFSwPM-8" edge="1">
          <mxGeometry relative="1" as="geometry" />
        </mxCell>
        <mxCell id="XVvXl2lgOHgUAnJFSwPM-7" value="&quot;0&quot;^^xsd:integer" style="rounded=1;whiteSpace=wrap;html=1;" parent="1" vertex="1">
          <mxGeometry x="1220" y="740" width="120" height="60" as="geometry" />
        </mxCell>
        <mxCell id="XVvXl2lgOHgUAnJFSwPM-8" value="mds:GrumpyPerson" style="rounded=1;whiteSpace=wrap;html=1;" parent="1" vertex="1">
          <mxGeometry x="1220" y="880" width="120" height="60" as="geometry" />
        </mxCell>
        <mxCell id="XVvXl2lgOHgUAnJFSwPM-26" value="rdf:type" style="edgeStyle=orthogonalEdgeStyle;rounded=0;orthogonalLoop=1;jettySize=auto;html=1;" parent="1" source="XVvXl2lgOHgUAnJFSwPM-24" target="XVvXl2lgOHgUAnJFSwPM-25" edge="1">
          <mxGeometry relative="1" as="geometry" />
        </mxCell>
        <mxCell id="XVvXl2lgOHgUAnJFSwPM-28" value="rdfs:range" style="edgeStyle=orthogonalEdgeStyle;rounded=0;orthogonalLoop=1;jettySize=auto;html=1;" parent="1" source="XVvXl2lgOHgUAnJFSwPM-24" target="XVvXl2lgOHgUAnJFSwPM-27" edge="1">
          <mxGeometry relative="1" as="geometry" />
        </mxCell>
        <mxCell id="XVvXl2lgOHgUAnJFSwPM-24" value="mds:hasAge" style="rounded=1;whiteSpace=wrap;html=1;" parent="1" vertex="1">
          <mxGeometry x="1800" y="191" width="120" height="61" as="geometry" />
        </mxCell>
        <mxCell id="XVvXl2lgOHgUAnJFSwPM-25" value="owl:DatatypeProperty" style="rounded=1;whiteSpace=wrap;html=1;" parent="1" vertex="1">
          <mxGeometry x="1800" y="50" width="120" height="61" as="geometry" />
        </mxCell>
        <mxCell id="XVvXl2lgOHgUAnJFSwPM-27" value="xsd:string" style="rounded=1;whiteSpace=wrap;html=1;" parent="1" vertex="1">
          <mxGeometry x="1800" y="332" width="120" height="61" as="geometry" />
        </mxCell>
        <mxCell id="XVvXl2lgOHgUAnJFSwPM-34" value="ms:some" style="edgeStyle=orthogonalEdgeStyle;rounded=0;orthogonalLoop=1;jettySize=auto;html=1;" parent="1" source="XVvXl2lgOHgUAnJFSwPM-32" target="XVvXl2lgOHgUAnJFSwPM-33" edge="1">
          <mxGeometry relative="1" as="geometry" />
        </mxCell>
        <mxCell id="XVvXl2lgOHgUAnJFSwPM-32" value="mds:hasAge" style="rounded=1;whiteSpace=wrap;html=1;" parent="1" vertex="1">
          <mxGeometry x="1390" y="600" width="120" height="60" as="geometry" />
        </mxCell>
        <mxCell id="XVvXl2lgOHgUAnJFSwPM-33" value="xsd:string[&amp;gt;= 0.0,&amp;lt;= 50.0]" style="rounded=1;whiteSpace=wrap;html=1;" parent="1" vertex="1">
          <mxGeometry x="1390" y="740" width="120" height="60" as="geometry" />
        </mxCell>
      </root>
    </mxGraphModel>
  </diagram>
</mxfile>
